<?xml version="1.0" encoding="UTF-8" standalone="no"?>
<!-- Created with Inkscape (http://www.inkscape.org/) -->

<svg
   version="1.1"
   id="svg1"
   width="90.8904"
   height="106.504"
   viewBox="0 0 156.113 175.63"
   xmlns="http://www.w3.org/2000/svg"
   xmlns:svg="http://www.w3.org/2000/svg">
  <defs
     id="defs1" />
  <g
     id="g1"
     transform="translate(-260.39503,-203.95499)">
    <path
       id="path1"
       style="fill:#008080;stroke-width:0.891009"
       d="m 330.09871,203.95525 c -0.85707,0.003 -42.16618,45.96915 -48.76838,54.26671 -15.73989,19.78143 -21.83659,36.90091 -20.82901,58.48762 0.53289,11.41986 2.96613,21.56506 7.53313,31.42014 2.18465,4.71386 6.03593,11.42957 6.55919,11.43709 0.15127,0.003 1.01092,-2.28403 1.91038,-5.08115 4.70098,-14.6208 13.56189,-29.62941 25.79048,-43.68246 5.43933,-6.25087 14.40855,-15.22709 12.32025,-12.33053 -17.46545,24.22585 -26.43428,41.30761 -32.15939,61.25628 l -1.84936,6.44789 1.50036,1.66888 c 4.79137,5.32831 15.55413,10.5075 24.05382,11.57533 0.84297,0.10574 16.51434,0.17917 34.8249,0.16124 l 33.29215,-0.0335 -0.4391,-41.73171 -0.4391,-41.73177 21.55439,-0.21716 21.55461,-0.21858 -36.63793,-39.14147 c -20.15134,-21.5283 -39.41356,-42.16074 -42.80439,-45.84934 -3.39095,-3.68866 -6.52606,-6.70527 -6.967,-6.70377 z m 0.15026,15.65688 31.08646,32.98037 31.08502,32.98045 -14.66704,0.0509 -14.66869,0.0508 0.43631,41.46396 0.43638,41.46391 -28.95449,0.0392 c -15.92517,0.022 -29.92872,-0.16338 -31.11847,-0.41154 -2.80312,-0.58465 -6.34586,-2.26555 -7.26667,-3.44658 -0.63902,-0.81971 -0.55097,-1.12836 0.7382,-2.60096 0.80476,-0.91927 4.87885,-4.2001 9.05495,-7.28936 11.74332,-8.68713 16.98083,-14.66627 21.31524,-24.33586 5.0661,-11.30224 7.16626,-23.17392 7.81794,-44.19437 0.53437,-17.23928 0.70292,-15.61562 -1.56676,-15.17152 -4.61188,0.90246 -16.19489,4.35308 -22.39052,6.6708 -13.82011,5.17011 -23.30297,11.17448 -30.27954,19.17262 -4.55784,5.22518 -7.08789,9.63789 -9.40233,16.40392 -1.17309,3.42981 -1.64502,4.31268 -1.78443,3.33452 -0.35882,-2.51529 0.87099,-13.75984 2.06017,-18.83922 1.66849,-7.12621 6.70062,-18.04508 11.59909,-25.16779 4.38914,-6.3821 18.206,-22.43517 35.31884,-41.03409 z" />
  </g>
</svg>
