<?xml version="1.0" encoding="UTF-8" standalone="no"?>
<!-- Created with Inkscape (http://www.inkscape.org/) -->

<svg
   version="1.1"
   id="svg1"
   width="511.64178"
   height="415.06049"
   viewBox="0 0 511.64178 415.0605"
   xmlns="http://www.w3.org/2000/svg"
   xmlns:svg="http://www.w3.org/2000/svg">
  <defs
     id="defs1" />
  <g
     id="g1"
     transform="translate(-176,-176.00001)">
    <path
       id="path1"
       style="fill:#008080;stroke-width:1.87293"
       d="m 412.72039,203.95533 c -1.8632,0.007 -91.66271,93.43771 -106.01483,110.30303 -34.21627,40.20813 -47.46932,75.00545 -45.27919,118.88284 1.15855,23.21211 6.4479,43.83344 16.37611,63.86496 4.74911,9.58187 13.12099,23.23194 14.25821,23.24743 0.32925,0.007 2.19795,-4.64274 4.15307,-10.32828 10.21933,-29.71838 29.48129,-60.225 56.06459,-88.78946 11.82433,-12.70563 31.32186,-30.95083 26.78238,-25.0633 -37.96719,49.24183 -57.46413,83.96245 -69.90952,124.51038 l -4.02042,13.10602 3.26157,3.39224 c 10.41568,10.83056 33.81238,21.35767 52.28918,23.52814 1.83248,0.21534 35.89997,0.36421 75.70422,0.32782 l 72.37184,-0.0673 -0.95465,-84.82452 -0.95466,-84.82453 46.85625,-0.44154 46.8562,-0.44411 -79.64504,-79.55959 c -43.80579,-43.75874 -85.67889,-85.6965 -93.05017,-93.19405 -7.37135,-7.49758 -14.18655,-13.62917 -15.14513,-13.62621 z m 0.32651,31.82432 67.57722,67.03637 67.57406,67.03639 -31.88414,0.10251 -31.88727,0.1024 0.9485,84.28012 0.94852,84.28009 -62.9424,0.0794 c -34.6189,0.0441 -65.06048,-0.33246 -67.6468,-0.83671 -6.09336,-1.18822 -13.79476,-4.6049 -15.79642,-7.00552 -1.38917,-1.66613 -1.19785,-2.29358 1.60448,-5.28669 1.74961,-1.86876 10.60602,-8.53718 19.68394,-14.81637 25.52833,-17.65781 36.91396,-29.81107 46.33619,-49.46559 11.01323,-22.97311 15.57843,-47.10349 16.99498,-89.83013 1.16166,-35.04066 1.52791,-31.74025 -3.4056,-30.83766 -10.02583,1.83422 -35.20535,8.84811 -48.67372,13.55913 -30.04288,10.50876 -50.65691,22.71337 -65.82319,38.97048 -9.90811,10.62079 -15.408,19.59021 -20.4389,33.34287 -2.55027,6.9714 -3.57618,8.7659 -3.87928,6.77788 -0.77997,-5.11287 1.89344,-27.96861 4.47861,-38.29295 3.62693,-14.48488 14.56612,-36.67873 25.21456,-51.15639 9.54135,-12.97237 39.57701,-45.60203 76.7777,-83.40639 z" />
  </g>
</svg>
