<?xml version="1.0" encoding="UTF-8" standalone="no"?>
<!-- Created with Inkscape (http://www.inkscape.org/) -->

<svg
   version="1.1"
   id="svg1"
   width="511.64178"
   height="415.06049"
   viewBox="0 0 511.64178 415.0605"
   sodipodi:docname="AutumnPointLogo.png"
   inkscape:version="1.4 (e7c3feb1, 2024-10-09)"
   inkscape:dataloss="true"
   xmlns:inkscape="http://www.inkscape.org/namespaces/inkscape"
   xmlns:sodipodi="http://sodipodi.sourceforge.net/DTD/sodipodi-0.dtd"
   xmlns="http://www.w3.org/2000/svg"
   xmlns:svg="http://www.w3.org/2000/svg">
  <defs
     id="defs1" />
  <sodipodi:namedview
     id="namedview1"
     pagecolor="#ffffff"
     bordercolor="#000000"
     borderopacity="0.25"
     inkscape:showpageshadow="2"
     inkscape:pageopacity="0.0"
     inkscape:pagecheckerboard="0"
     inkscape:deskcolor="#d1d1d1"
     showgrid="false"
     inkscape:zoom="0.63758448"
     inkscape:cx="391.32069"
     inkscape:cy="580.31525"
     inkscape:window-width="1104"
     inkscape:window-height="1111"
     inkscape:window-x="819"
     inkscape:window-y="44"
     inkscape:window-maximized="0"
     inkscape:current-layer="g1">
    <inkscape:page
       x="0"
       y="0"
       width="511.64178"
       height="415.06049"
       id="page2"
       margin="0"
       bleed="0" />
  </sodipodi:namedview>
  <g
     inkscape:groupmode="layer"
     inkscape:label="Image"
     id="g1"
     transform="translate(-176,-176.00001)">
    <path
       style="fill:#000000;stroke-width:0.995949"
       d="m 289.87551,590.41243 c -6.72545,-2.71683 -9.13593,-14.39419 -4.44821,-21.5489 4.41593,-6.74007 12.90382,-5.31233 15.78174,2.65464 3.73065,10.32745 -3.34402,22.1217 -11.33353,18.89426 z m 5.67855,-5.11025 c 2.08767,-1.44673 3.2025,-4.13949 3.2025,-7.73532 0,-3.68906 -1.13192,-6.07868 -3.80981,-8.0431 -1.72177,-1.26312 -2.00687,-1.2873 -4.03096,-0.34252 -3.95548,1.84638 -5.56439,7.42595 -3.67765,12.75413 1.4228,4.01807 5.18069,5.53956 8.31592,3.36681 z m 20.32558,4.94818 c -5.43974,-1.92652 -8.45235,-10.93373 -6.01961,-17.99752 2.38245,-6.91767 8.14542,-9.71485 13.22541,-6.4193 2.72491,1.76772 3.16085,2.99145 1.74264,4.892 -1.02406,1.3723 -1.12186,1.38433 -2.05508,0.25256 -4.08797,-4.95778 -10.29409,-0.79886 -10.29921,6.90193 -0.006,6.99253 6.44977,10.92074 10.21659,6.21784 l 1.15625,-1.44357 0.92485,1.64313 c 0.86811,1.54229 0.87203,1.72126 0.0639,2.91776 -1.95511,2.89505 -5.73468,4.17602 -8.95591,3.03517 z m 78.18777,-0.16429 c -3.9802,-1.9015 -6.45931,-6.61728 -6.45931,-12.28692 0,-5.60248 1.99359,-9.71473 5.878,-12.12484 9.60556,-5.95968 18.02328,11.1941 10.46416,21.32411 -2.87258,3.84955 -6.14682,4.87247 -9.88285,3.08765 z m 5.59893,-4.50662 c 4.99893,-3.24306 5.03737,-12.78749 0.0642,-15.95 -2.32015,-1.47545 -3.32192,-1.4386 -5.32221,0.19586 -2.67981,2.18975 -3.52172,4.67281 -3.30183,9.73839 0.14273,3.28657 2.76114,6.40283 6.17947,7.35416 0.12209,0.0338 1.19322,-0.56837 2.38036,-1.33841 z m 54.69078,4.49574 c -1.09893,-0.52476 -2.41129,-1.51304 -2.91639,-2.19608 -0.88374,-1.19512 -0.88299,-1.30441 0.0203,-2.89748 l 0.93843,-1.65538 1.39091,1.46617 c 2.85796,3.01268 7.42081,2.29353 7.42081,-1.16958 0,-1.68082 -0.7445,-2.39342 -3.97714,-3.80689 -1.48461,-0.64904 -3.38218,-1.95017 -4.21683,-2.89136 -1.30326,-1.46955 -1.51751,-2.18605 -1.51751,-5.07509 0,-2.47261 0.27617,-3.73425 1.04267,-4.76129 2.22651,-2.98374 5.56041,-3.48496 9.05216,-1.361 2.45178,1.4914 2.46417,1.52466 1.38859,3.72444 l -0.78368,1.60279 -1.88002,-1.28445 c -2.9402,-2.00877 -5.75293,-1.29311 -5.75293,1.46373 0,1.60681 1.36002,2.858 5.16956,4.75569 3.37565,1.68156 4.49155,3.12872 4.84377,6.28172 0.49673,4.44707 -2.92692,8.87016 -6.80237,8.78823 -0.78211,-0.0169 -2.32113,-0.45941 -3.42006,-0.98417 z m 23.03373,0.0148 c -8.40281,-4.015 -8.54313,-19.99214 -0.21657,-24.65438 7.91166,-4.42996 15.83214,7.11943 12.2103,17.80472 -1.14506,3.37821 -3.54056,6.18732 -6.08315,7.13369 -2.45458,0.91353 -3.51042,0.86284 -5.91061,-0.28403 z m 6.32654,-4.83467 c 3.52274,-2.44124 4.13401,-10.48382 1.07515,-14.14638 -2.08666,-2.49858 -3.77594,-3.00476 -6.08935,-1.82484 -3.62961,1.85124 -5.28869,8.0997 -3.42975,12.91716 1.45405,3.76804 5.36983,5.18436 8.44395,3.05406 z m 38.06249,4.83531 c -4.11259,-2.01215 -5.36686,-6.26895 -5.36686,-18.21429 v -6.81588 h 1.74833 1.74836 l 0.16832,8.9655 c 0.16628,8.854 0.18634,8.98598 1.60249,10.61697 1.53501,1.76761 3.82429,2.14402 5.54303,0.91131 1.80662,-1.29565 2.47878,-4.80384 2.47878,-12.93722 v -7.55656 h 1.53339 1.53338 l -0.0116,8.73332 c -0.009,7.0942 -0.19332,9.27106 -0.9821,11.59891 -1.55698,4.59583 -5.96783,6.6688 -9.99599,4.69794 z m 57.75779,0.16175 c -4.54661,-2.16018 -6.59643,-6.57229 -6.30166,-13.56376 0.15844,-3.75938 0.4579,-5.05186 1.65872,-7.16167 4.20807,-7.39343 13.10919,-6.3588 16.08145,1.86918 2.0711,5.73342 1.21893,12.10858 -2.14806,16.07027 -2.78475,3.27653 -6.14016,4.28277 -9.29045,2.78598 z m 6.82693,-5.69287 c 3.82435,-4.31244 3.03459,-11.93203 -1.56728,-15.12115 -2.08869,-1.44747 -4.56949,-0.74522 -6.49817,1.83941 -4.06892,5.45277 -1.32693,15.01662 4.30529,15.01662 1.6317,0 2.63022,-0.46067 3.76016,-1.73488 z m 41.1594,5.70174 c -0.8763,-0.37842 -2.19148,-1.34875 -2.9226,-2.15627 -1.31248,-1.44959 -1.31716,-1.4876 -0.37124,-3.00603 l 0.95802,-1.53786 2.22015,1.70089 c 3.14326,2.40809 5.53686,2.2362 6.61968,-0.47514 0.7927,-1.98491 -0.57978,-3.6387 -4.45308,-5.36597 -3.8069,-1.69772 -5.31334,-3.81017 -5.31334,-7.45077 0,-6.29682 4.96185,-9.36557 10.09483,-6.24318 2.28492,1.38993 2.58982,2.30557 1.4426,4.33281 -0.66804,1.18056 -0.76885,1.17349 -2.4116,-0.16872 -2.04945,-1.67438 -4.15378,-1.80626 -5.25585,-0.32943 -1.74772,2.34221 -0.68411,3.89622 4.23701,6.19081 3.17976,1.48264 5.18241,4.26641 5.18241,7.2037 0,6.04352 -4.81877,9.55425 -10.02699,7.30516 z M 221.49062,577.73221 v -12.67177 h 4.58984 c 7.51439,0 10.23295,2.29227 10.23295,8.62826 0,2.77807 -0.23896,3.4989 -1.82438,5.5026 l -1.82441,2.30589 0.96788,1.88481 c 0.53233,1.03675 1.4871,3.04077 2.12165,4.4535 l 1.15379,2.56859 h -1.98003 c -1.89683,0 -2.06162,-0.18699 -3.92348,-4.45224 -1.86619,-4.27516 -2.02294,-4.45223 -3.9397,-4.45223 h -1.99619 v 4.45223 4.45224 h -1.78894 -1.78898 z m 10.77152,-1.41569 c 2.51414,-3.04911 0.43237,-6.57177 -4.14596,-7.01554 l -3.04764,-0.29543 v 4.62972 4.62973 l 3.10454,-0.37726 c 1.90301,-0.23123 3.48558,-0.8393 4.08906,-1.57122 z m 12.22938,1.41569 v -12.67177 h 6.38912 6.38912 v 2.0548 2.05491 h -4.85573 -4.85572 v 3.08237 3.08237 h 4.08904 4.08903 v 2.05491 2.05491 h -4.08903 -4.08904 v 3.42478 3.42488 h 4.85572 4.85573 v 2.05491 2.05481 h -6.38912 -6.38912 z m 20.95634,0 v -12.67177 h 1.53339 1.53341 v 10.61697 10.61696 h 4.85574 4.85572 v 2.05491 2.05481 h -6.38912 -6.38914 z m 68.56899,4.96602 c 1.42044,-4.23822 3.30669,-9.93636 4.1916,-12.66259 1.40015,-4.3136 1.78068,-4.95799 2.93249,-4.96602 0.94715,-0.0105 1.51085,0.52646 1.98211,1.87447 1.52112,4.35087 7.68364,22.95583 7.68364,23.1973 0,0.14455 -0.77011,0.2627 -1.71132,0.2627 -1.50214,0 -1.82404,-0.33492 -2.6333,-2.73985 l -0.92195,-2.73984 h -4.445 -4.44503 l -0.80311,2.73984 c -0.72577,2.4761 -0.97691,2.73985 -2.60794,2.73985 h -1.80485 z m 9.06137,-5.47969 c -0.58783,-1.97784 -1.18413,-3.98133 -1.32503,-4.45224 -0.46856,-1.56584 -0.90174,-0.88396 -2.28803,3.60132 l -1.37445,4.44696 h 3.02819 3.02816 z m 17.33716,2.56964 0.15292,-10.61803 h -3.0918 -3.09178 v -2.05491 -2.0548 h 7.53916 7.53919 v 2.0548 c 0,2.04499 -0.0146,2.05491 -2.939,2.05491 h -2.93901 v 10.61697 10.61697 l -1.66118,10e-4 -1.66117,9.5e-4 z m 15.94785,-2.05597 v -12.67177 h 1.78894 1.78898 v 12.67177 12.67188 h -1.78898 -1.78894 z m 38.33479,0 v -12.67177 l 1.66118,0.0253 c 1.52254,0.0232 2.03889,0.70901 6.18699,8.21954 2.4892,4.50693 4.67429,8.19504 4.85575,8.19578 0.1814,7.4e-4 0.25902,-3.69815 0.1721,-8.21965 l -0.15785,-8.2208 h 1.819 1.819 v 12.67177 12.67188 l -1.66115,-0.0253 c -1.5255,-0.0232 -2.05779,-0.73678 -6.51692,-8.73332 l -4.85574,-8.70787 -0.14303,8.73332 -0.14302,8.73332 h -1.51813 -1.51812 z m 83.3143,0 v -12.67177 h 1.78897 1.78894 v 10.61697 10.61696 h 4.60019 4.60018 v 2.05491 2.05481 h -6.38916 -6.38912 z m 47.53516,2.05491 v -10.61697 h -2.81122 c -2.78284,0 -2.81124,-0.0211 -2.81124,-2.05491 v -2.0548 h 7.41142 7.4114 v 2.0548 c 0,2.03422 -0.029,2.05491 -2.81124,2.05491 h -2.81121 v 10.61697 10.61697 h -1.78895 -1.78896 z m 16.35617,-2.05491 v -12.67177 h 1.78897 1.78894 v 12.67177 12.67188 h -1.78894 -1.78897 z m 37.82367,0 v -12.67177 h 1.8008 c 1.71147,0 2.02215,0.40661 6.26136,8.19567 2.45329,4.50767 4.63307,8.20645 4.84389,8.21954 0.21076,0.0137 0.38334,-3.67491 0.38334,-8.19567 v -8.21954 h 1.53339 1.53339 v 12.67177 12.67188 h -1.54964 c -1.39178,0 -2.02955,-0.87288 -6.26133,-8.56977 l -4.71173,-8.56987 -0.14302,8.56987 -0.14304,8.56977 h -1.77367 -1.77371 z m -361.25173,-52.7345 c -1.4815,-0.55781 -3.32154,-1.45582 -4.08907,-1.99568 -2.19333,-1.54282 -5.06943,-5.91397 -6.35374,-9.65656 -1.13343,-3.30283 -1.18018,-4.16889 -1.31262,-24.31631 -0.0756,-11.49031 -0.25437,-21.59547 -0.39746,-22.45593 -0.14302,-0.86046 -0.82877,-1.9117 -1.52381,-2.33609 -0.69505,-0.42439 -1.26373,-1.33862 -1.26373,-2.03161 0,-1.17242 0.58606,-1.25997 8.43366,-1.25997 7.90548,0 8.43366,0.0804 8.43366,1.2843 0,0.88061 -0.48467,1.41422 -1.54185,1.69756 -1.06474,0.28537 -1.70874,1.00067 -2.08131,2.31175 -0.35009,1.23205 -0.48169,9.35266 -0.37492,23.13247 0.15873,20.46543 0.20611,21.33788 1.30992,24.10539 0.62993,1.57925 1.9886,3.73341 3.01926,4.78684 1.58284,1.61789 2.46819,1.95566 5.69868,2.17433 2.1036,0.14233 4.68388,-0.0866 5.73394,-0.50777 2.41073,-0.9679 5.86623,-5.90562 6.59532,-9.42437 0.33202,-1.60246 0.54821,-10.66277 0.54993,-23.04921 l 0.003,-20.40888 -1.2546,-1.68127 c -0.69002,-0.92471 -1.61005,-1.68129 -2.0445,-1.68129 -0.4492,0 -0.78994,-0.59095 -0.78994,-1.36993 0,-1.29382 0.34074,-1.36992 6.13357,-1.36992 5.7928,0 6.13357,0.0761 6.13357,1.36992 0,0.86504 -0.34077,1.36993 -0.92459,1.36993 -0.5085,0 -1.37103,0.43702 -1.91674,0.97114 -0.93779,0.91793 -1.00616,2.20337 -1.24774,23.46009 l -0.25553,22.48899 -1.43675,3.92092 c -1.68016,4.58507 -4.6222,8.21595 -7.95097,9.81241 -3.32195,1.59308 -11.82873,1.95977 -15.28446,0.65875 z m 94.04802,-0.0422 c -3.88706,-1.40239 -5.32248,-2.56658 -7.89833,-6.40599 -3.66114,-5.45699 -3.97531,-7.89085 -3.97531,-30.79786 0,-21.49135 -0.1782,-22.87339 -3.0579,-23.721 -1.06267,-0.31278 -1.54225,-0.86303 -1.54225,-1.76945 0,-1.24578 0.46056,-1.31551 8.68922,-1.31551 9.64509,0 9.99701,0.19693 7.1558,4.00442 l -1.53338,2.0549 V 486.888 c 0,22.28461 0.31469,25.67237 2.72644,29.35352 2.12447,3.24254 4.19162,4.29935 8.37424,4.28118 4.2295,-0.0179 7.02048,-1.56034 9.18063,-5.07223 2.53393,-4.11964 2.71958,-6.01417 2.71958,-27.75201 v -20.00849 l -1.49408,-2.0022 c -0.82175,-1.10122 -1.97178,-2.00221 -2.55566,-2.00221 -0.72083,0 -1.06157,-0.43973 -1.06157,-1.36993 0,-1.29968 0.34074,-1.36993 6.64468,-1.36993 6.30396,0 6.64473,0.0702 6.64473,1.36993 0,0.87493 -0.34077,1.36993 -0.94306,1.36993 -0.51867,0 -1.3812,0.64808 -1.91673,1.44018 -0.90209,1.33423 -0.99251,3.03489 -1.22928,23.1176 -0.24506,20.7905 -0.30365,21.8175 -1.43083,25.10228 -1.37195,3.998 -4.21022,8.16484 -6.74724,9.90563 -4.03729,2.77015 -11.64869,3.54462 -16.7497,1.70426 z m 206.98041,0.32901 c -14.74999,-3.88989 -22.43214,-28.02628 -15.24427,-47.89559 4.36863,-12.07606 14.781,-19.22363 25.1212,-17.2444 12.60447,2.41262 20.79548,15.27376 20.79548,32.65209 0,13.28434 -4.90232,24.42167 -13.23097,30.05879 -4.06945,2.75442 -12.01304,3.86075 -17.44144,2.42911 z m 11.3006,-4.46016 c 2.59063,-1.18287 5.96752,-5.14234 7.27453,-8.52943 3.78609,-9.81161 2.57719,-30.08873 -2.4205,-40.59941 -2.06823,-4.34969 -4.28067,-6.51096 -7.62239,-7.44604 -3.64763,-1.02068 -7.68433,0.47425 -10.23118,3.78894 -4.6562,6.05999 -7.03601,20.04405 -5.52898,32.48914 1.97653,16.32234 9.40696,24.46185 18.52852,20.2968 z M 176,524.00868 c 0,-0.72811 0.46019,-1.51948 1.02262,-1.75874 2.05581,-0.87435 3.55765,-5.28129 10.20242,-29.93695 l 6.77598,-25.14235 -0.7914,-3.11249 -0.79139,-3.11249 h 4.56914 c 2.51303,0 4.74168,0.0463 4.95252,0.10284 0.21076,0.0565 3.83347,12.82862 8.0503,28.38239 7.37808,27.21408 9.11993,32.4768 10.74905,32.4768 0.46073,0 0.75138,0.66244 0.75138,1.71239 v 1.71239 h -8.94477 -8.94478 v -1.66689 c 0,-1.29184 0.30463,-1.71566 1.35405,-1.88365 2.50053,-0.40027 2.6048,-1.86876 0.69484,-9.78801 l -1.74682,-7.24297 -8.12714,0.18753 -8.12711,0.18754 -1.47984,5.44154 c -2.14537,7.88874 -1.91694,10.94576 0.86038,11.51371 1.03944,0.21265 1.23771,0.56879 1.23771,2.22385 0,0.85619 -1.02227,1.02735 -6.13358,1.02735 -5.72151,0 -6.13356,-0.0887 -6.13356,-1.32373 z m 26.74479,-23.72601 c -0.0689,-0.48939 -4.95533,-18.97855 -6.59456,-24.95218 -0.21861,-0.7963 -7.3575,23.78469 -7.36922,25.3737 -0.002,0.20514 3.15989,0.33742 7.02531,0.29395 4.01772,-0.0452 6.98967,-0.35163 6.93847,-0.71547 z m 80.08154,23.33735 c 0,-1.36564 0.25641,-1.71239 1.26602,-1.71239 2.72947,0 2.79763,-0.73308 2.83467,-30.47757 l 0.034,-27.33897 -2.45071,0.19605 c -1.34789,0.10782 -3.19683,0.66727 -4.10878,1.24322 -1.99872,1.26232 -4.59695,5.09236 -5.56855,8.20859 -0.46614,1.49507 -1.05802,2.27596 -1.72501,2.27596 -0.9516,0 -1.01541,-0.47361 -1.01541,-7.53462 v -7.53463 h 19.67852 19.67853 l 0.0994,5.47973 c 0.0547,3.01385 0.11221,6.45077 0.12761,7.63761 0.0233,1.67656 -0.2093,2.20652 -1.03775,2.37593 -0.8389,0.17156 -1.29948,-0.47098 -2.16061,-3.01409 -2.0916,-6.1769 -5.12718,-9.05435 -9.55189,-9.05435 h -2.33329 l 0.14448,27.32742 c 0.13634,25.76076 0.2003,27.41001 1.11826,28.76858 0.53553,0.79264 1.39809,1.44114 1.91674,1.44114 0.66516,0 0.94305,0.5046 0.94305,1.71239 v 1.71239 h -8.94478 -8.94478 z m 83.31426,0.56362 c 0,-0.63182 0.70544,-1.94183 1.56758,-2.91111 l 1.56757,-1.76233 0.97334,-15.0692 c 2.58556,-40.02953 2.60557,-38.1441 -0.4253,-40.07051 -0.89511,-0.56892 -1.62147,-1.5624 -1.62757,-2.22614 -0.009,-1.08471 0.65725,-1.19772 7.01696,-1.1884 l 7.02806,0.0106 5.56655,20.70993 c 5.9124,21.99652 6.9069,25.47015 7.1777,25.07066 0.0936,-0.13801 2.47841,-8.72739 5.29965,-19.08749 2.82127,-10.36011 5.62478,-20.60891 6.23005,-22.77512 l 1.10047,-3.93855 h 7.11908 c 6.77836,0 7.11912,0.0656 7.11912,1.36992 0,0.96893 -0.34076,1.36993 -1.16409,1.36993 -0.64026,0 -1.67532,0.47984 -2.3001,1.06629 -1.48931,1.39794 -1.47978,2.16234 0.38216,30.69812 1.54202,23.63318 1.95415,26.45771 3.86051,26.45771 0.46449,0 0.75491,0.65875 0.75491,1.71239 v 1.71239 h -8.68922 c -8.19949,0 -8.68922,-0.0739 -8.68922,-1.30282 0,-0.8317 0.5542,-1.56183 1.53202,-2.0187 2.76235,-1.29047 2.84912,-2.37621 1.83167,-22.92594 -1.45081,-29.3035 -0.43311,-29.34886 -8.50888,0.37929 l -6.93417,25.52575 -1.82261,0.2078 c -1.80299,0.20547 -1.83593,0.16123 -3.05637,-4.10982 -0.67857,-2.37463 -3.9833,-13.93854 -7.34383,-25.69748 l -6.11011,-21.37991 -0.37216,5.96817 c -0.20465,3.28248 -0.70534,13.05756 -1.11255,21.72238 -0.81099,17.25569 -0.70308,18.41196 1.87271,20.06639 0.81701,0.52476 1.40098,1.45528 1.40098,2.2324 0,1.23936 -0.39333,1.33249 -5.62245,1.33249 -4.92095,0 -5.62246,-0.14328 -5.62246,-1.14877 z m 61.33569,-0.0707 c 0,-0.72538 0.61949,-1.53311 1.52847,-1.99293 0.89203,-0.45117 1.75063,-1.55623 2.06206,-2.65401 0.34602,-1.21951 0.48254,-10.84943 0.38829,-27.38946 -0.13517,-23.72344 -0.21163,-25.6068 -1.09319,-26.91143 -0.52133,-0.77155 -1.439,-1.49708 -2.03931,-1.61232 -0.60028,-0.11522 -1.16814,-0.74892 -1.26192,-1.40819 -0.15523,-1.09185 0.42173,-1.19869 6.47363,-1.19869 h 6.64411 l 11.02367,21.0627 c 6.06305,11.58449 11.48026,21.83329 12.03829,22.77513 l 1.01459,1.71241 0.0116,-18.34484 c 0.0116,-20.2972 -0.22065,-22.16643 -3.03096,-24.30981 -2.99148,-2.28145 -2.02098,-2.89559 4.5757,-2.89559 5.79281,0 6.13357,0.0761 6.13357,1.36993 0,0.98048 -0.34076,1.36993 -1.1986,1.36993 -0.65924,0 -1.63676,0.64855 -2.17231,1.44122 -0.92072,1.36278 -0.9815,3.04044 -1.11726,30.82347 l -0.14361,29.38221 -2.66766,-0.0264 c -2.66553,-0.0264 -2.66926,-0.0296 -4.65983,-3.93856 -6.88156,-13.51477 -24.01281,-46.51939 -24.50582,-47.21224 -0.44893,-0.63095 -0.54824,4.41605 -0.411,20.89146 0.1974,23.70785 0.29818,24.55633 3.17434,26.74903 0.8217,0.62644 1.49545,1.6785 1.49722,2.33778 0.003,1.07518 -0.62836,1.19861 -6.13034,1.19861 -5.54108,0 -6.13358,-0.11773 -6.13358,-1.21973 z m 49.57968,-0.49267 c 0,-1.23904 0.27443,-1.71239 0.99329,-1.71239 0.54629,0 1.35131,-0.68504 1.78893,-1.52233 0.68633,-1.31307 0.7957,-5.10518 0.7957,-27.58872 0,-22.48351 -0.10931,-26.27563 -0.7957,-27.58871 -0.43762,-0.8373 -1.24264,-1.52235 -1.78893,-1.52235 -0.66413,0 -0.99329,-0.47045 -0.99329,-1.41963 0,-1.40634 0.1282,-1.41758 13.67276,-1.1987 12.60045,0.20362 13.8531,0.33333 15.97282,1.65379 5.36392,3.34144 8.17449,8.61525 8.57345,16.0873 0.31542,5.90806 -0.71606,9.91662 -3.64902,14.18066 -3.70382,5.38473 -8.72431,7.68475 -16.77432,7.68475 h -3.99516 v 8.94957 c 0,9.51803 0.33448,11.28289 2.33116,12.30021 0.75502,0.38465 1.24675,1.18225 1.24675,2.02208 0,1.33819 -0.30533,1.38687 -8.68922,1.38687 h -8.68922 z m 23.33517,-29.06314 c 1.51313,-0.92072 2.54123,-2.24495 3.57792,-4.60848 1.29062,-2.94247 1.45466,-3.97315 1.45466,-9.13872 0,-11.09591 -3.20585,-15.75423 -10.84204,-15.75423 h -3.72518 v 15.41174 15.41173 l 3.70571,-0.015 c 2.5198,-0.0106 4.38514,-0.4285 5.82893,-1.30701 z m 75.69343,30.26186 c -0.45016,-1.21012 -0.0404,-2.32785 1.14293,-3.11858 2.47207,-1.65157 2.55068,-2.54209 2.55068,-28.90358 0,-26.08777 -0.10814,-27.3881 -2.39041,-28.74161 -0.61026,-0.36189 -1.21716,-1.20953 -1.34871,-1.88366 -0.22297,-1.14272 0.35979,-1.22565 8.61254,-1.22565 7.7016,0 8.83663,0.13785 8.73552,1.06093 -0.0639,0.58351 -0.81508,1.6305 -1.66928,2.32664 -1.01808,0.82969 -1.6668,2.02745 -1.88311,3.47697 -0.1814,1.21619 -0.3266,12.88388 -0.32248,25.9282 0.009,25.57024 0.084,26.36023 2.69086,28.03535 0.8084,0.51948 1.39064,1.45149 1.39064,2.22617 0,1.26767 -0.42169,1.3325 -8.65903,1.3325 -4.76249,0 -8.74507,-0.23113 -8.85015,-0.51368 z m 23.13164,-0.78197 c 0,-0.80826 0.47719,-1.45613 1.26852,-1.72231 2.75275,-0.92589 2.86921,-2.22121 2.71049,-30.1437 -0.13694,-24.06348 -0.20409,-25.68975 -1.11922,-27.04416 -0.53555,-0.79259 -1.39806,-1.44108 -1.91674,-1.44108 -0.60232,0 -0.94305,-0.495 -0.94305,-1.36993 0,-1.29856 0.34073,-1.36993 6.54041,-1.36993 h 6.54041 l 6.47532,12.50063 c 3.5614,6.87535 8.89853,17.10194 11.86029,22.72577 l 5.38498,10.22515 v -18.85717 c 0,-18.50374 -0.0233,-18.90078 -1.16762,-21.1846 -0.64218,-1.28008 -1.67723,-2.42593 -2.30009,-2.54631 -0.72171,-0.1395 -1.13248,-0.69849 -1.13248,-1.54118 0,-1.23295 0.4144,-1.32229 6.13357,-1.32229 5.65652,0 6.13357,0.0999 6.13357,1.28431 0,0.87377 -0.48126,1.4133 -1.50559,1.68784 -0.82808,0.22194 -1.72028,0.954 -1.98268,1.62679 -0.26251,0.6728 -0.621,14.32324 -0.79694,30.33432 l -0.31989,29.11108 -2.68098,0.16186 -2.68097,0.16187 -13.2894,-25.90477 -13.2894,-25.90473 -0.13518,21.118 c -0.14942,23.36733 0.0174,24.91448 2.92182,27.12967 0.85328,0.65072 1.55287,1.72263 1.55464,2.38191 0.003,1.07518 -0.62839,1.19861 -6.13034,1.19861 -5.67565,0 -6.13357,-0.0971 -6.13357,-1.29565 z m 59.80229,-0.41675 c 0,-1.20779 0.27792,-1.71239 0.94302,-1.71239 0.51868,0 1.38123,-0.6485 1.91673,-1.44103 0.9177,-1.35815 0.98233,-3.01321 1.12353,-28.76857 l 0.14971,-27.32754 h -2.59803 c -4.37477,0 -7.47913,2.94692 -9.92149,9.41828 -0.52069,1.37966 -1.22388,2.22614 -1.8493,2.22614 -0.88828,0 -1.0086,-0.47171 -1.00471,-3.93855 0.003,-2.16621 0.14942,-5.55679 0.32678,-7.53463 l 0.32231,-3.59607 h 19.60742 19.60733 v 7.73033 c 0,7.34334 -0.0526,7.73033 -1.05067,7.73033 -0.75937,0 -1.49471,-1.11646 -2.65228,-4.02693 -2.17883,-5.47824 -4.26708,-7.50929 -8.10301,-7.88112 l -3.01682,-0.29243 v 26.76377 c 0,29.00686 0.089,30.03717 2.65234,30.72421 1.0909,0.29237 1.43669,0.77659 1.43669,2.01183 v 1.62677 h -8.94478 -8.94477 z M 402.68644,394.73714 c -8.50337,-1.36822 -19.23173,-7.87488 -23.97541,-14.5409 l -1.48569,-2.08774 1.92157,-8.03305 c 5.94551,-24.85522 15.10942,-46.12192 32.86124,-76.26129 2.12247,-3.60357 -6.95647,7.55394 -12.47138,15.32664 -12.39854,17.47442 -21.4334,36.15394 -26.29691,54.36865 -0.93046,3.48476 -1.8159,6.33324 -1.96761,6.32994 -0.52397,-0.0114 -4.31172,-8.40418 -6.45056,-14.29288 -4.47134,-12.31069 -6.80085,-24.9747 -7.21437,-39.21968 -0.78171,-26.927 5.50619,-48.25159 21.48264,-72.85534 C 385.79131,233.15139 427.65779,176 428.51645,176 c 0.44176,0 3.55068,3.77587 6.90873,8.39084 3.35803,4.61495 22.43654,30.42961 42.39665,57.3659 l 36.2911,48.97507 -21.59527,0.17868 -21.59526,0.17867 v 52.04998 52.04999 l -33.35129,-0.10263 c -18.3432,-0.0565 -34.0413,-0.21366 -34.88467,-0.34936 z m 58.01335,-64.96226 v -51.71494 h 14.69447 14.69447 l -30.79316,-41.26592 -30.79319,-41.26594 -11.29757,15.06598 c -17.33929,23.12295 -31.35109,43.08579 -35.81531,51.02669 -4.98222,8.86234 -10.13848,22.45873 -11.885,31.33935 -1.24487,6.32978 -2.59505,20.34878 -2.26213,23.48751 0.12937,1.22043 0.61217,0.12166 1.82354,-4.1509 2.38974,-8.42855 4.97013,-13.92215 9.59119,-20.41943 7.07339,-9.94525 16.636,-17.39288 30.53519,-23.78167 6.23107,-2.86412 17.87112,-7.11876 22.50082,-8.22445 2.27819,-0.54409 2.12729,-2.56951 1.41024,18.92875 -0.87439,26.21382 -3.10322,41.01043 -8.29759,55.08476 -4.44398,12.04121 -9.75398,19.4771 -21.60979,30.26142 -4.21593,3.83492 -8.33294,7.90788 -9.14889,9.05104 -1.30693,1.83105 -1.39821,2.21695 -0.76668,3.24199 0.90997,1.477 4.44195,3.58762 7.24381,4.3287 1.18924,0.31454 15.21523,0.60566 31.1689,0.64694 l 29.00668,0.0751 z"
       id="path1" />
  </g>
</svg>
