<?xml version="1.0" encoding="UTF-8" standalone="no"?>
<!-- Created with Inkscape (http://www.inkscape.org/) -->

<svg
   version="1.1"
   id="svg1"
   width="91.953598"
   height="105.99879"
   viewBox="0 0 114.94199 132.49848"
   xmlns="http://www.w3.org/2000/svg"
   xmlns:svg="http://www.w3.org/2000/svg">
  <defs
     id="defs1" />
  <g
     id="g1"
     transform="translate(-260.39503,-203.95496)">
    <path
       id="path1"
       style="fill:#008080;stroke-width:0.664061"
       d="m 311.71606,203.95519 c -0.63104,0.002 -31.04588,34.67995 -35.90691,40.93979 -11.58887,14.92347 -16.07772,27.83872 -15.33586,44.12412 0.39235,8.61535 2.18388,16.26907 5.54645,23.70392 1.6085,3.55622 4.4441,8.62268 4.82936,8.62835 0.11138,0.002 0.74432,-1.72311 1.40657,-3.83331 3.46121,-11.0302 9.98527,-22.35297 18.98886,-32.95484 4.00484,-4.71577 10.60865,-11.4876 9.07109,-9.30237 -12.85937,18.27641 -19.46288,31.16321 -23.67814,46.21284 l -1.36163,4.8644 1.10467,1.25904 c 3.52777,4.01977 11.45211,7.92705 17.71021,8.73265 0.62066,0.0797 12.15909,0.13516 25.64068,0.12163 l 24.51215,-0.0253 -0.32329,-31.48316 -0.3233,-31.4832 15.86994,-0.16384 15.87011,-0.1649 -26.97557,-29.52903 c -14.83691,-16.24134 -29.01919,-31.80683 -31.51577,-34.58958 -2.49667,-2.78278 -4.80497,-5.05857 -5.12962,-5.05744 z m 0.11063,11.81183 22.88816,24.88099 22.8871,24.88105 -10.79896,0.0385 -10.80018,0.0383 0.32124,31.28116 0.3213,31.28112 -21.31845,0.0296 c -11.72529,0.0166 -22.03575,-0.12325 -22.91173,-0.31048 -2.06386,-0.44107 -4.67229,-1.70917 -5.35026,-2.60015 -0.47049,-0.61841 -0.40567,-0.85126 0.54352,-1.96222 0.59252,-0.69351 3.59217,-3.16863 6.66692,-5.49922 8.64631,-6.55374 12.50255,-11.0645 15.69387,-18.35942 3.73004,-8.52661 5.27633,-17.48283 5.75614,-33.34103 0.39345,-13.00562 0.51755,-11.78071 -1.15356,-11.44567 -3.39561,0.68084 -11.92388,3.28404 -16.48556,5.03257 -10.1754,3.90043 -17.15738,8.43023 -22.29405,14.46417 -3.35582,3.94198 -5.21863,7.271 -6.92269,12.37541 -0.86372,2.58751 -1.21119,3.25357 -1.31383,2.51564 -0.26419,-1.89759 0.64128,-10.38068 1.51685,-14.21266 1.22846,-5.37614 4.93349,-13.61353 8.54011,-18.98704 3.23161,-4.81477 13.40461,-16.9255 26.00435,-30.95685 z" />
  </g>
</svg>
