<?xml version="1.0" encoding="UTF-8" standalone="no"?>
<!-- Created with Inkscape (http://www.inkscape.org/) -->

<svg
   version="1.1"
   id="svg1"
   width="250.64178"
   height="140.06049"
   viewBox="0 0 511.64178 415.0605"
   xmlns="http://www.w3.org/2000/svg"
   xmlns:svg="http://www.w3.org/2000/svg">
  <defs
     id="defs1" />
  <g
     id="g1"
     transform="translate(-176,-176.00001)">
    <path
       id="path1"
       style="fill:#008080;stroke-width:0.805167"
       d="m 325.1839,203.9553 c -0.78683,0.003 -38.70887,40.89147 -44.76973,48.27231 -14.44942,17.59642 -20.04614,32.8249 -19.12126,52.02712 0.48925,10.15839 2.72293,19.18298 6.91558,27.94945 2.00553,4.19334 5.54095,10.16707 6.0212,10.17385 0.13904,0.003 0.92819,-2.03182 1.75383,-4.52 4.31558,-13.00576 12.44985,-26.35648 23.67589,-38.85725 4.99339,-5.56041 13.22713,-13.54512 11.31012,-10.96854 -16.03342,21.54988 -24.26692,36.74479 -29.52257,54.48992 l -1.69781,5.73564 1.37735,1.48455 c 4.39851,4.73982 14.27886,9.34684 22.08156,10.29671 0.77385,0.0942 15.16044,0.15939 31.96965,0.14346 l 30.5624,-0.0295 -0.40314,-37.12206 -0.40316,-37.12206 19.78725,-0.19323 19.78723,-0.19436 -33.63385,-34.81795 c -18.49905,-19.15029 -36.18193,-37.50366 -39.29479,-40.78485 -3.1129,-3.28118 -5.99094,-5.96458 -6.39575,-5.96328 z m 0.13788,13.92739 28.53765,29.33737 28.53632,29.33737 -13.46458,0.0449 -13.46589,0.0448 0.40055,36.88381 0.40056,36.8838 -26.58039,0.0348 c -14.61945,0.0193 -27.47483,-0.14549 -28.56702,-0.36617 -2.57321,-0.52001 -5.82549,-2.01526 -6.67078,-3.06585 -0.58665,-0.72916 -0.50585,-1.00375 0.67756,-2.31364 0.73886,-0.81783 4.47889,-3.73615 8.31247,-6.48414 10.78053,-7.72765 15.58865,-13.04632 19.56763,-21.6478 4.65085,-10.0538 6.57872,-20.61407 7.17692,-39.31268 0.49057,-15.33497 0.64524,-13.8906 -1.43817,-13.4956 -4.23387,0.80272 -14.86711,3.87224 -20.55476,5.93393 -12.68701,4.59899 -21.39226,9.94014 -27.79693,17.0548 -4.18416,4.64801 -6.50675,8.57333 -8.63128,14.59195 -1.07697,3.05092 -1.51021,3.83626 -1.6382,2.96623 -0.32938,-2.23756 0.79959,-12.24 1.89129,-16.75828 1.53165,-6.33907 6.15123,-16.05184 10.64804,-22.38775 4.02928,-5.67715 16.71324,-19.95698 32.42298,-36.50144 z" />
  </g>
</svg>
