<!-- assets/logo-symbol.svg
     Arrow + leaf symbol (leaf outlined, not filled). Color: primary teal (#0d9488).
     Replace your existing ./assets/logo-symbol.svg with this file.
-->
<svg xmlns="http://www.w3.org/2000/svg" viewBox="0 0 512 512" role="img" aria-labelledby="apSymbolTitle">
  <title id="apSymbolTitle">Autumn Point symbol — arrow and leaf (outline leaf)</title>
  <defs>
    <style>
      .teal-stroke { stroke: #0d9488; stroke-width:18; stroke-linejoin:round; stroke-linecap:round; fill:none; }
      .leaf-stroke { stroke: #0d9488; stroke-width:12; stroke-linejoin:round; stroke-linecap:round; fill:none; }
      .vein { stroke:#0d9488; stroke-width:8; stroke-linecap:round; stroke-linejoin:round; fill:none; opacity:0.95; }
    </style>
  </defs>

  <!-- Arrow outline (stroke only) -->
  <path class="teal-stroke" d="M 256 40
       L 96 200
       L 96 384
       L 192 384
       L 192 464
       L 320 464
       L 320 384
       L 416 384
       L 256 224
       Z" />

  <!-- Leaf outline (unfilled) - exact path from original artwork, now stroke-only -->
  <path class="leaf-stroke" d="M 188 264
      C 208 208 272 184 336 200
      C 356 208 378 226 376 250
      C 372 286 340 332 300 364
      C 284 378 260 396 232 402
      C 220 406 206 396 206 384
      C 206 372 206 340 188 264 Z" />

  <!-- Leaf central vein -->
  <path class="vein" d="M 248 300 C 284 276 316 276 340 292" />
</svg>
